<svg viewBox="0 0 60 60" xmlns="http://www.w3.org/2000/svg"><g fill="none" stroke="#fff" stroke-miterlimit="10" stroke-width="2"><path d="m36 5.28h-1.89a4.93 4.93 0 0 0 -9.29 0h-1.92a4.93 4.93 0 0 0 -4.9 4.92v1.64h23v-1.64a4.93 4.93 0 0 0 -5-4.92z"/><path d="m45.87 8.56h-1.64v4.92a1.64 1.64 0 0 1 -1.64 1.65h-26.25a1.64 1.64 0 0 1 -1.64-1.65v-4.92h-1.64a4.93 4.93 0 0 0 -4.92 4.92v39.6a4.93 4.93 0 0 0 4.92 4.92h32.81a4.93 4.93 0 0 0 4.92-4.92v-39.6a4.93 4.93 0 0 0 -4.92-4.92zm-18.53 35.83-6.56 6.61a1.64 1.64 0 0 1 -2.32 0l-3.28-3.28a1.64 1.64 0 0 1 0-2.32 1.62 1.62 0 0 1 2.32 0l2.12 2.12 5.38-5.45a1.64 1.64 0 0 1 2.32 2.32zm0-11.59-6.56 6.56a1.64 1.64 0 0 1 -2.32 0l-3.28-3.28a1.64 1.64 0 0 1 2.32-2.32l2.12 2.12 5.4-5.4a1.64 1.64 0 0 1 2.32 2.32zm0-11.48-6.56 6.56a1.64 1.64 0 0 1 -2.32 0l-3.28-3.28a1.64 1.64 0 0 1 2.32-2.32l2.12 2.12 5.38-5.4a1.64 1.64 0 0 1 2.32 2.32zm15.25 26.84h-9.84a1.65 1.65 0 0 1 0-3.29h9.84a1.65 1.65 0 0 1 0 3.29zm0-11.6h-9.84a1.64 1.64 0 0 1 0-3.28h9.84a1.64 1.64 0 0 1 0 3.28zm0-11.48h-9.84a1.64 1.64 0 0 1 0-3.28h9.84a1.64 1.64 0 0 1 0 3.28z"/></g></svg>