<svg viewBox="0 0 60 60" xmlns="http://www.w3.org/2000/svg"><g fill="#00556e"><path d="m15.71 14.83h-8.17a2.33 2.33 0 0 1 0-4.66h8.17a2.33 2.33 0 0 1 0 4.66z"/><path d="m15.71 26.5h-8.17a2.34 2.34 0 0 1 0-4.67h8.17a2.34 2.34 0 0 1 0 4.67z"/><path d="m15.71 38.17h-8.17a2.34 2.34 0 0 1 0-4.67h8.17a2.34 2.34 0 0 1 0 4.67z"/><path d="m15.71 49.83h-8.17a2.33 2.33 0 0 1 0-4.66h8.17a2.33 2.33 0 0 1 0 4.66z"/><path d="m48.38 2h-31.5a6.43 6.43 0 0 0 -6.42 6.42v43.16a6.43 6.43 0 0 0 6.42 6.42h31.5a6.43 6.43 0 0 0 6.41-6.42v-43.16a6.43 6.43 0 0 0 -6.41-6.42zm-23.92 11.67h9.33a2.33 2.33 0 0 1 0 4.66h-9.33a2.33 2.33 0 0 1 0-4.66zm21 32.66s-23.33-1-23.33-2.33a2.33 2.33 0 0 1 2.33-2.33h21a2.33 2.33 0 1 1 0 4.66zm0-9.33h-21a2.34 2.34 0 0 1 0-4.67h21a2.34 2.34 0 0 1 0 4.67zm0-9.33h-21a2.34 2.34 0 0 1 0-4.67h21a2.34 2.34 0 0 1 0 4.67z"/></g></svg>