<svg viewBox="0 0 149.01 149.01" xmlns="http://www.w3.org/2000/svg"><path d="m89.55 106.25a35.12 35.12 0 1 1 0-63.41 7 7 0 0 0 7.85-1.44l15.5-15.53a7 7 0 0 0 0-9.9 6.57 6.57 0 0 0 -1.22-1 70.2 70.2 0 1 0 0 119.1 7 7 0 0 0 2.18-9.66 6.19 6.19 0 0 0 -1-1.23l-15.44-15.57a7 7 0 0 0 -7.87-1.36" fill="#fbb542"/><path d="m112 46.65-6.39 6.47a3.69 3.69 0 0 0 -.52 4.06 35.15 35.15 0 0 1 0 34.68 3.68 3.68 0 0 0 .6 4.14l6.39 6.39a3.4 3.4 0 0 0 4.79.24 3.66 3.66 0 0 0 .66-.81 50.88 50.88 0 0 0 0-54.5 3.38 3.38 0 0 0 -4.63-1.22 3.18 3.18 0 0 0 -.81.65" fill="#01586f"/><path d="m125.91 32.76-6.22 6.24a3.69 3.69 0 0 0 -.47 4.53 54.46 54.46 0 0 1 0 61.93 3.68 3.68 0 0 0 .47 4.63l6.22 6.24a3.42 3.42 0 0 0 4.83.17 3 3 0 0 0 .52-.61 70.24 70.24 0 0 0 0-82.66 3.42 3.42 0 0 0 -4.73-1 4.3 4.3 0 0 0 -.61.52" fill="#01586f"/><path d="m92.05 74.55a17.57 17.57 0 1 1 -17.57-17.55 17.54 17.54 0 0 1 17.57 17.5" fill="#fbb542"/></svg>