<svg viewBox="0 0 226 61" xmlns="http://www.w3.org/2000/svg"><path d="m37.25 44a14.94 14.94 0 1 1 0-27 3 3 0 0 0 3.34-.61l6.59-6.6a3 3 0 0 0 -.5-4.64 29.86 29.86 0 1 0 0 50.66 3 3 0 0 0 .92-4.11 2.66 2.66 0 0 0 -.42-.52l-6.58-6.6a3 3 0 0 0 -3.35-.6" fill="#f9b736"/><path d="m46.8 18.65-2.71 2.75a1.55 1.55 0 0 0 -.23 1.72 14.94 14.94 0 0 1 0 14.76 1.55 1.55 0 0 0 .26 1.76l2.72 2.72a1.44 1.44 0 0 0 2 .1 1.35 1.35 0 0 0 .28-.35 21.63 21.63 0 0 0 0-23.18 1.44 1.44 0 0 0 -2-.52 1.3 1.3 0 0 0 -.34.28" fill="#fff"/><path d="m52.72 12.73-2.65 2.66a1.56 1.56 0 0 0 -.2 1.93 23.19 23.19 0 0 1 0 26.34 1.56 1.56 0 0 0 .2 2l2.65 2.66a1.45 1.45 0 0 0 2.05.07 1.78 1.78 0 0 0 .23-.29 29.86 29.86 0 0 0 0-35.16 1.45 1.45 0 0 0 -2-.42 1.16 1.16 0 0 0 -.26.23" fill="#fff"/><path d="m38.31 30.51a7.47 7.47 0 1 1 -7.47-7.51 7.46 7.46 0 0 1 7.46 7.46" fill="#f9b736"/><g fill="#fff"><path d="m75.64 16.79h5.1c5.56 0 9.14 2.74 9.14 8.93s-3.58 9.09-8.88 9.09h-5.4zm4.89 14.75c3.09 0 5.18-1.49 5.18-5.8s-2.11-5.65-5.18-5.65h-.78v11.43z"/><path d="m90.81 28c0-4.55 3.23-7.19 6.73-7.19s6.74 2.64 6.74 7.19-3.24 7.14-6.74 7.14-6.73-2.63-6.73-7.18m9.27 0c0-2.37-.84-3.91-2.54-3.91s-2.54 1.49-2.54 3.86.84 3.91 2.54 3.91 2.54-1.53 2.54-3.91"/><path d="m105.17 28a6.94 6.94 0 0 1 6.67-7.19h.52a6.06 6.06 0 0 1 4 1.48l-1.94 2.61a2.85 2.85 0 0 0 -1.87-.81c-2 0-3.25 1.54-3.25 3.91s1.33 3.91 3.16 3.91a4.26 4.26 0 0 0 2.5-1.05l1.57 2.69a6.9 6.9 0 0 1 -4.53 1.54c-3.87 0-6.84-2.63-6.84-7.18"/><path d="m118.86 29.83v-5.55h-1.86v-3l2.11-.16.48-3.64h3.41v3.64h3.32v3.16h-3.32v5.58c0 1.55.71 2.18 1.79 2.18a4.19 4.19 0 0 0 1.31-.27l.66 2.95a9.74 9.74 0 0 1 -3.08.5c-3.42 0-4.78-2.11-4.78-5.27"/><path d="m127 28c0-4.55 3.24-7.19 6.75-7.19s6.73 2.64 6.73 7.19-3.24 7.14-6.73 7.14-6.75-2.68-6.75-7.23m9.27 0c0-2.37-.84-3.91-2.52-3.91s-2.54 1.54-2.54 3.91.84 3.91 2.54 3.91 2.52-1.53 2.52-3.91"/><path d="m141.46 21.09h3.34l.3 2.4h.1a4.68 4.68 0 0 1 3.93-2.73 3.91 3.91 0 0 1 1.65.28l-.68 3.52a5.44 5.44 0 0 0 -1.5-.22c-1 0-2.3.66-3 2.53v8h-4.1z"/><path d="m156.61 25.91c0-6 4-9.49 8.58-9.49a7.74 7.74 0 0 1 5.47 2.34l-2.16 2.64a4.62 4.62 0 0 0 -3.21-1.4c-2.5 0-4.46 2.18-4.46 5.8s1.74 5.85 4.39 5.85a4.81 4.81 0 0 0 3.55-1.68l2.17 2.55a7.46 7.46 0 0 1 -5.9 2.61c-4.61 0-8.43-3.16-8.43-9.23"/><path d="m172.42 15.44h4.11v4.73l-.19 2.48a6.33 6.33 0 0 1 4.28-1.89c3 0 4.29 2.11 4.29 5.54v8.51h-4.1v-8c0-2-.54-2.59-1.72-2.59a3.48 3.48 0 0 0 -2.59 1.39v9.25h-4.08z"/><path d="m186 28c0-4.45 3.16-7.19 6.52-7.19 3.94 0 5.9 2.84 5.9 6.58a7.8 7.8 0 0 1 -.18 1.8h-8.27a3.32 3.32 0 0 0 3.57 2.9 5.82 5.82 0 0 0 3-.9l1.36 2.46a9 9 0 0 1 -4.9 1.49c-3.95 0-7-2.64-7-7.18m8.91-1.5c0-1.5-.66-2.59-2.29-2.59a2.74 2.74 0 0 0 -2.7 2.59z"/><path d="m199.28 28a7 7 0 0 1 6.72-7.24h.52a6.06 6.06 0 0 1 4 1.48l-1.94 2.61a2.81 2.81 0 0 0 -1.87-.81c-2 0-3.24 1.54-3.24 3.91s1.32 3.91 3.1 3.91a4.14 4.14 0 0 0 2.5-1.05l1.6 2.65a6.92 6.92 0 0 1 -4.54 1.63c-3.86 0-6.84-2.63-6.84-7.18"/><path d="m211.68 15.44h4.01v11.1h.1l4.38-5.45h4.46l-4.85 5.66 5.22 8.06h-4.45l-3.11-5.35-1.75 1.97v3.38h-4.01z"/><path d="m80.33 39.71c0 .1 0 .14-.15.14h-1.65v5.43a.24.24 0 0 1 0 .12.11.11 0 0 1 -.11 0h-.42a.11.11 0 0 1 -.11 0 .13.13 0 0 1 0-.12v-5.43h-1.77c-.12 0-.17 0-.17-.14v-.4a.11.11 0 0 1 0-.11.24.24 0 0 1 .12 0h4.05a.21.21 0 0 1 .11 0 .24.24 0 0 1 0 .12z"/><path d="m85.37 45.13a.17.17 0 0 1 -.13.19 3.44 3.44 0 0 1 -1.42.14 2.32 2.32 0 0 1 -1.41-.32 1.3 1.3 0 0 1 -.41-1.06v-.08a1.39 1.39 0 0 1 .2-.77 1.17 1.17 0 0 1 .64-.45 4 4 0 0 1 1.16-.13h.62v-.34a1 1 0 0 0 -.2-.73.9.9 0 0 0 -.69-.2 3.75 3.75 0 0 0 -.67 0l-.63.15a.12.12 0 0 1 -.14 0 .14.14 0 0 1 0-.09v-.34a.16.16 0 0 1 .12-.15 4.75 4.75 0 0 1 .57-.18 3.57 3.57 0 0 1 .8-.09 1.43 1.43 0 0 1 1.63 1.18 1.41 1.41 0 0 1 0 .41zm-.21-5s0 .06-.08.06h-.53l-.1-.11-.69-.78-.7.81-.1.11h-.54s-.07 0-.07-.06a.11.11 0 0 1 0-.08l.81-1.08.1-.11h.82a.26.26 0 0 1 .2.13l.82 1s.04.11.06.12zm-.53 4.71v-1.62h-.63a3.42 3.42 0 0 0 -.64 0 1 1 0 0 0 -.38.14.55.55 0 0 0 -.2.25.86.86 0 0 0 -.06.39v.07a1 1 0 0 0 .12.51.53.53 0 0 0 .34.25 1.85 1.85 0 0 0 .66.09h.61zm.84-5.61h-.61l-.07-.08-1-1v-.06h.65a.26.26 0 0 1 .21.11l.82 1.06z"/><path d="m87.38 45.28v-4.06a.19.19 0 0 1 .16-.2 7.63 7.63 0 0 1 .95-.2 4.53 4.53 0 0 1 .74-.07 1.82 1.82 0 0 1 .56.09 1 1 0 0 1 .41.25 3.22 3.22 0 0 1 1.4-.35 1.69 1.69 0 0 1 .7.15 1.18 1.18 0 0 1 .49.5 2.17 2.17 0 0 1 .17.91v3a.24.24 0 0 1 0 .12.15.15 0 0 1 -.13 0h-.52a.24.24 0 0 1 0-.12v-3a.94.94 0 0 0 -.2-.7.74.74 0 0 0 -.56-.2 2.51 2.51 0 0 0 -1 .23 2.81 2.81 0 0 1 .07.65v3a.24.24 0 0 1 0 .12h-.62a.13.13 0 0 1 0-.12v-3a2.08 2.08 0 0 0 -.07-.55.45.45 0 0 0 -.21-.26.74.74 0 0 0 -.53 0 4.15 4.15 0 0 0 -1 .14v3.75a.2.2 0 0 1 0 .11.13.13 0 0 1 -.12 0h-.54a.16.16 0 0 1 -.15-.19z"/><path d="m99.43 44.88c.61 0 .91-.22.91-.64a.49.49 0 0 0 -.12-.34 2.12 2.12 0 0 0 -.51-.38l-.85-.43a1.88 1.88 0 0 1 -.64-.51 1.23 1.23 0 0 1 -.23-.72 1 1 0 0 1 .24-.69 1.09 1.09 0 0 1 .58-.35 2.71 2.71 0 0 1 .8-.11 3.83 3.83 0 0 1 .67.08 1.78 1.78 0 0 1 .51.16l.09.07a.11.11 0 0 1 0 .08v.35a.09.09 0 0 1 0 .1.14.14 0 0 1 -.15 0 3.18 3.18 0 0 0 -.53-.14 3.57 3.57 0 0 0 -.56-.07 1.5 1.5 0 0 0 -.63.11.39.39 0 0 0 -.25.4.57.57 0 0 0 .14.37 1.9 1.9 0 0 0 .44.3l.85.44a2 2 0 0 1 .54.36 1.24 1.24 0 0 1 .3.39 1.21 1.21 0 0 1 .08.46 1.13 1.13 0 0 1 -.22.71 1.21 1.21 0 0 1 -.59.45 2.44 2.44 0 0 1 -.85.13 2.53 2.53 0 0 1 -.72-.08 2.72 2.72 0 0 1 -.55-.18c-.07 0-.11-.09-.11-.15v-.35a.11.11 0 0 1 0-.11.15.15 0 0 1 .13 0 3.08 3.08 0 0 0 1.23.29z"/><path d="m106.59 43.45a2.22 2.22 0 0 1 -.48 1.51 2 2 0 0 1 -2.78 0 2.18 2.18 0 0 1 -.49-1.51v-.64a2.16 2.16 0 0 1 .49-1.5 2 2 0 0 1 2.78 0 2.2 2.2 0 0 1 .48 1.5zm-.74 0v-.64a1.91 1.91 0 0 0 -.12-.75 1 1 0 0 0 -.37-.48 1.12 1.12 0 0 0 -.64-.17 1.06 1.06 0 0 0 -.86.37 1.62 1.62 0 0 0 -.28 1v.64q0 1.41 1.14 1.41a1.06 1.06 0 0 0 .85-.36 1.69 1.69 0 0 0 .28-1.02z"/><path d="m111.73 45.13a.17.17 0 0 1 -.12.19 5 5 0 0 1 -.67.14 4.69 4.69 0 0 1 -.75 0 2.38 2.38 0 0 1 -1.43-.32 1.29 1.29 0 0 1 -.42-1.06v-.08a1.39 1.39 0 0 1 .2-.77 1.2 1.2 0 0 1 .64-.45 4 4 0 0 1 1.18-.14h.64v-.34a1.06 1.06 0 0 0 -.21-.73.9.9 0 0 0 -.7-.2 3.53 3.53 0 0 0 -.65 0 4.14 4.14 0 0 0 -.63.15.19.19 0 0 1 -.15 0 .08.08 0 0 1 0-.09v-.33a.16.16 0 0 1 .11-.15c.19-.07.39-.13.58-.18a3.55 3.55 0 0 1 .79-.09 1.43 1.43 0 0 1 1.64 1.19 1.8 1.8 0 0 1 0 .4zm-.73-.28v-1.63h-.64a3.31 3.31 0 0 0 -.63 0 1.09 1.09 0 0 0 -.38.14.64.64 0 0 0 -.21.25 1.27 1.27 0 0 0 0 .39v.07a1.11 1.11 0 0 0 .06.51.48.48 0 0 0 .32.25 2 2 0 0 0 .68.09h.6zm.41-5.91a.08.08 0 0 1 0 .07l-1 1.06a.52.52 0 0 1 -.11.1h-.54c-.06 0-.08 0-.08-.05a.11.11 0 0 1 0-.08l.83-1.06a.47.47 0 0 1 .1-.1h.65c.12.01.15.03.15.06z"/><path d="m116.27 45.33c0 .08 0 .12-.15.13a2.53 2.53 0 0 1 -.55 0 1.3 1.3 0 0 1 -.88-.23 1.16 1.16 0 0 1 -.27-.89v-2.92l-.81-.1c-.11 0-.16 0-.16-.15v-.23c0-.09 0-.14.16-.14h.85v-.8a.16.16 0 0 1 .15-.16l.43-.08h.09a.2.2 0 0 1 0 .11v.91h1a.13.13 0 0 1 0 .12v.28a.18.18 0 0 1 -.17.17h-.9v2.94a.67.67 0 0 0 .09.44.51.51 0 0 0 .36.1h.49c.12 0 .17 0 .17.12z"/><path d="m124.71 43.43a2.33 2.33 0 0 1 -.46 1.53 1.74 1.74 0 0 1 -1.38.55 8.93 8.93 0 0 1 -1.55-.14.35.35 0 0 1 -.14-.06.17.17 0 0 1 0-.14v-5.86a.13.13 0 0 1 0-.12h.65a.13.13 0 0 1 0 .12v1.56c.15 0 .3 0 .47-.06h.52a2.2 2.2 0 0 1 .8.13 1.67 1.67 0 0 1 .58.4 1.78 1.78 0 0 1 .35.65 3.21 3.21 0 0 1 .1.88zm-.74 0v-.61a1.9 1.9 0 0 0 -.25-1 .94.94 0 0 0 -.83-.35 8.18 8.18 0 0 0 -1 0v3.35h1a.93.93 0 0 0 .85-.36 1.83 1.83 0 0 0 .21-1z"/><path d="m128.37 44.86a3.43 3.43 0 0 0 .56 0 2.46 2.46 0 0 0 .53-.15l.41-.14h.13s.05 0 .05.1v.33c0 .06 0 .1-.12.16a3.4 3.4 0 0 1 -1.57.38 2.62 2.62 0 0 1 -1-.18 1.45 1.45 0 0 1 -.69-.65 2.21 2.21 0 0 1 -.26-1.19v-.77a2 2 0 0 1 .48-1.44 1.87 1.87 0 0 1 1.38-.53 2 2 0 0 1 1 .25 1.43 1.43 0 0 1 .63.68 2.38 2.38 0 0 1 .21 1v.47c0 .11 0 .18-.16.18h-2.82v.14a1.54 1.54 0 0 0 .28 1.06 1.1 1.1 0 0 0 .96.3zm1.37-4.59s0 0-.07 0h-.54l-.1-.1-.7-.82-.69.82-.11.1h-.53s-.07 0-.07 0a.17.17 0 0 1 0-.1l.81-1.05.1-.09a.09.09 0 0 1 .1 0h.72a.26.26 0 0 1 .21.11l.8 1.06a.12.12 0 0 1 .07.07zm-.3 2.54v-.09a2.4 2.4 0 0 0 -.12-.75.84.84 0 0 0 -.37-.44 1.3 1.3 0 0 0 -.62-.12c-.75 0-1.13.44-1.13 1.31v.09zm-.95 3.85a.24.24 0 0 1 0 .12h-.57a.24.24 0 0 1 0-.12v-.66a.24.24 0 0 1 0-.12h.57a.24.24 0 0 1 0 .12z"/><path d="m135.63 42.47v2.77a.11.11 0 0 1 0 .12h-.63a.11.11 0 0 1 0-.12v-2.77a1.64 1.64 0 0 0 -.11-.66.6.6 0 0 0 -.32-.36 1.29 1.29 0 0 0 -.55-.11 4.18 4.18 0 0 0 -1.06.16v3.74a.18.18 0 0 1 -.17.17h-.41a.18.18 0 0 1 -.17-.17v-4a.2.2 0 0 1 .16-.2 7.33 7.33 0 0 1 1.74-.27 2.72 2.72 0 0 1 .8.12 1.23 1.23 0 0 1 .52.35 1.54 1.54 0 0 1 .26.53 2.9 2.9 0 0 1 -.06.7z"/><path d="m141.19 45.28a.18.18 0 0 1 -.17.17h-.4a.15.15 0 0 1 -.13 0 .21.21 0 0 1 0-.11v-2.87a1.25 1.25 0 0 0 -.23-.86.94.94 0 0 0 -.68-.25 3.43 3.43 0 0 0 -.56.07 1.68 1.68 0 0 0 -.59.17v3.64a.18.18 0 0 1 -.17.17h-.41a.18.18 0 0 1 -.17-.17v-5.93a.13.13 0 0 1 0-.12h.65a.24.24 0 0 1 0 .12v1.74a2.88 2.88 0 0 1 .63-.2 3.68 3.68 0 0 1 .66-.06 1.59 1.59 0 0 1 .8.18 1.27 1.27 0 0 1 .52.58 2.14 2.14 0 0 1 .19 1z"/><path d="m149.8 45.17a.33.33 0 0 1 0 .14.22.22 0 0 1 -.15.06 6.93 6.93 0 0 1 -.78.1h-.77a2.08 2.08 0 0 1 -.82-.14 1.46 1.46 0 0 1 -.57-.41 1.89 1.89 0 0 1 -.34-.66 3.13 3.13 0 0 1 -.12-.86v-.61a3.35 3.35 0 0 1 .12-.89 1.67 1.67 0 0 1 .35-.64 1.35 1.35 0 0 1 .57-.4 2 2 0 0 1 .81-.14h1v-.61h-1.35a.18.18 0 0 1 -.17-.17v-.28a.21.21 0 0 1 .05-.13h1.47v-.22a.18.18 0 0 1 .17-.17h.42a.16.16 0 0 1 .16.16v.33h.29a.13.13 0 0 1 .12 0 .18.18 0 0 1 0 .12v.29a.18.18 0 0 1 -.17.17h-.29zm-.75-3.75h-1a1.21 1.21 0 0 0 -.53.09 1 1 0 0 0 -.34.28 1.57 1.57 0 0 0 -.18.44 4 4 0 0 0 -.05.6v.61a3.08 3.08 0 0 0 .05.61 1.18 1.18 0 0 0 .18.45.91.91 0 0 0 .34.28 1.21 1.21 0 0 0 .53.09h1z"/><path d="m153.69 44.86a3.31 3.31 0 0 0 .55 0 2.46 2.46 0 0 0 .53-.15l.41-.14h.15a.12.12 0 0 1 0 .1v.33c0 .06 0 .1-.12.16a3.4 3.4 0 0 1 -1.57.38 2.59 2.59 0 0 1 -.95-.18 1.52 1.52 0 0 1 -.7-.65 2.31 2.31 0 0 1 -.26-1.19v-.77a2.1 2.1 0 0 1 .49-1.44 1.87 1.87 0 0 1 1.38-.53 2.07 2.07 0 0 1 1.06.25 1.48 1.48 0 0 1 .63.68 2.7 2.7 0 0 1 .21 1v.47c0 .11 0 .18-.16.18h-2.82v.14a1.59 1.59 0 0 0 .28 1.06 1.13 1.13 0 0 0 .89.3zm1.37-4.59s0 0-.08 0h-.57a.28.28 0 0 1 -.09-.1l-.7-.82-.7.82-.1.1h-.54s-.07 0-.07 0a.17.17 0 0 1 0-.1l.81-1.05.11-.09h.87a.24.24 0 0 1 .2.11l.8 1.06a.12.12 0 0 1 .06.07zm-.3 2.54v-.09a2 2 0 0 0 -.13-.75.78.78 0 0 0 -.36-.44 1.3 1.3 0 0 0 -.62-.12c-.75 0-1.13.44-1.13 1.31v.09zm.14-5.18a1.5 1.5 0 0 0 -.3 0 1.92 1.92 0 0 0 -.32.09c-.15 0-.24 0-.24-.13v-.17a.11.11 0 0 1 0-.08h.09a1.57 1.57 0 0 1 .38-.14 2.67 2.67 0 0 1 .4 0 1 1 0 0 1 .59.15.53.53 0 0 1 .23.46.6.6 0 0 1 0 .19.64.64 0 0 1 -.11.2 1.78 1.78 0 0 1 -.21.27l-.16.17-.1.13v.08a.17.17 0 0 0 0 .1v.17a.31.31 0 0 1 -.05.12h-.3a.2.2 0 0 1 -.14-.06.12.12 0 0 1 0-.1v-.17a.74.74 0 0 1 0-.21.61.61 0 0 1 .09-.18 1.33 1.33 0 0 1 .14-.19l.16-.17a.89.89 0 0 0 .16-.22.49.49 0 0 0 0-.17.16.16 0 0 0 -.17-.16h-.09z"/><path d="m164.12 45.28a.23.23 0 0 1 -.06.12h-.51a.15.15 0 0 1 -.13 0 .17.17 0 0 1 0-.12v-2.81a1.25 1.25 0 0 0 -.23-.86.92.92 0 0 0 -.67-.25 3.83 3.83 0 0 0 -.58.07 2.09 2.09 0 0 0 -.59.17v3.64a.13.13 0 0 1 0 .12h-.64a.17.17 0 0 1 0-.12v-5.93a.24.24 0 0 1 0-.12h.65a.24.24 0 0 1 0 .12v1.74a3.15 3.15 0 0 1 1.3-.26 1.58 1.58 0 0 1 .79.18 1.19 1.19 0 0 1 .53.58 2.27 2.27 0 0 1 .19 1z"/><path d="m169.38 45.13a.16.16 0 0 1 -.13.19 5 5 0 0 1 -.67.14 4.82 4.82 0 0 1 -.76 0 2.34 2.34 0 0 1 -1.41-.32 1.3 1.3 0 0 1 -.43-1.06v-.08a1.39 1.39 0 0 1 .2-.77 1.19 1.19 0 0 1 .65-.45 4 4 0 0 1 1.18-.14h.63v-.34a1.11 1.11 0 0 0 -.2-.73.94.94 0 0 0 -.7-.2 3.64 3.64 0 0 0 -.66 0c-.22 0-.43.09-.64.15a.11.11 0 0 1 -.13 0 .08.08 0 0 1 0-.09v-.33a.15.15 0 0 1 .11-.15l.57-.18a3.57 3.57 0 0 1 .8-.09 1.44 1.44 0 0 1 1.64 1.19 1.8 1.8 0 0 1 0 .4zm-.74-.28v-1.63h-.64a3.42 3.42 0 0 0 -.64 0 1.09 1.09 0 0 0 -.38.14.71.71 0 0 0 -.2.25 1.27 1.27 0 0 0 -.06.39v.07a1.11 1.11 0 0 0 .09.48.61.61 0 0 0 .34.25 1.67 1.67 0 0 0 .66.08h.67zm-.64 1.84a.16.16 0 0 1 -.05.11.2.2 0 0 1 -.11 0h-.34a.24.24 0 0 1 -.12 0 .16.16 0 0 1 -.05-.11v-.69a.16.16 0 0 1 .05-.11.13.13 0 0 1 .12 0h.34a.16.16 0 0 1 .16.16z"/><path d="m174.94 42.47v2.77a.24.24 0 0 1 0 .12h-.65a.24.24 0 0 1 0-.12v-2.77a1.86 1.86 0 0 0 -.1-.66.63.63 0 0 0 -.32-.36 1.47 1.47 0 0 0 -.56-.11 4.17 4.17 0 0 0 -1.05.16v3.74a.13.13 0 0 1 0 .12h-.64a.13.13 0 0 1 0-.12v-4a.18.18 0 0 1 .16-.2 7.25 7.25 0 0 1 1.73-.27 2.74 2.74 0 0 1 .81.12 1 1 0 0 1 .5.35 1.2 1.2 0 0 1 .26.53 3.4 3.4 0 0 1 -.14.7z"/><path d="m180.49 45.28a.24.24 0 0 1 0 .12h-.49a.08.08 0 1 1 -.12-.12v-2.81a1.36 1.36 0 0 0 -.23-.86 1 1 0 0 0 -.68-.25 3.83 3.83 0 0 0 -.58.07 2.09 2.09 0 0 0 -.59.17v3.64a.13.13 0 0 1 0 .12h-.54a.17.17 0 0 1 -.15-.17v-5.88a.24.24 0 0 1 0-.12h.65a.24.24 0 0 1 0 .12v1.74a3.15 3.15 0 0 1 1.3-.26 1.62 1.62 0 0 1 .8.18 1.27 1.27 0 0 1 .52.58 2.27 2.27 0 0 1 .19 1z"/><path d="m189.28 43.45a2.23 2.23 0 0 1 -.48 1.55 1.7 1.7 0 0 1 -1.37.53 5.5 5.5 0 0 1 -1-.09v1.52a.16.16 0 0 1 0 .11.11.11 0 0 1 -.11 0h-.43a.11.11 0 0 1 -.11 0 .2.2 0 0 1 0-.11v-5.96a.17.17 0 0 1 .14-.07 3.71 3.71 0 0 1 .48-.1 5 5 0 0 1 .54-.06h.52a1.87 1.87 0 0 1 1.06.25 1.46 1.46 0 0 1 .61.73 2.6 2.6 0 0 1 .21 1.1zm-.75 0v-.61a2.57 2.57 0 0 0 -.1-.78 1 1 0 0 0 -.35-.51 1.05 1.05 0 0 0 -.65-.16 5.45 5.45 0 0 0 -1 .07v3.34a4.69 4.69 0 0 0 1 .08.93.93 0 0 0 .79-.3 1.87 1.87 0 0 0 .26-1.13z"/><path d="m194.65 45.28a.13.13 0 0 1 0 .12h-.51a.15.15 0 0 1 -.13 0 .24.24 0 0 1 0-.12v-2.81a1.24 1.24 0 0 0 -.24-.86.92.92 0 0 0 -.67-.25 4 4 0 0 0 -.58.07 2.09 2.09 0 0 0 -.59.17v3.64a.13.13 0 0 1 0 .12h-.64a.17.17 0 0 1 0-.12v-5.93a.24.24 0 0 1 0-.12h.65a.13.13 0 0 1 0 .12v1.74a3.15 3.15 0 0 1 1.3-.26 1.56 1.56 0 0 1 .76.21 1.26 1.26 0 0 1 .54.58 2.42 2.42 0 0 1 .19 1z"/><path d="m196.65 43.75v-2.75a.23.23 0 0 1 .06-.12.11.11 0 0 1 .11 0h.4a.15.15 0 0 1 .13 0 .24.24 0 0 1 0 .12v2.76a1.28 1.28 0 0 0 .23.87.94.94 0 0 0 .75.26 2.35 2.35 0 0 0 .53 0c.18 0 .37-.06.56-.1v-3.79a.17.17 0 0 1 .05-.12.13.13 0 0 1 .12 0h.53a.24.24 0 0 1 0 .12v4.06a.19.19 0 0 1 -.16.2 7.25 7.25 0 0 1 -1.74.26 2.12 2.12 0 0 1 -1-.2 1.22 1.22 0 0 1 -.51-.59 2.89 2.89 0 0 1 -.06-.98zm3.09-4.81a.08.08 0 0 1 0 .07l-1 1.06-.1.1h-.55s-.07 0-.07-.05a.11.11 0 0 1 0-.08l.83-1.06a.28.28 0 0 1 .09-.1h.67q.13.01.13.06z"/><path d="m203.87 45.51a2.28 2.28 0 0 1 -.77-.14 1.54 1.54 0 0 1 -.57-.41 1.78 1.78 0 0 1 -.33-.64 3.13 3.13 0 0 1 -.12-.86v-.65a2.77 2.77 0 0 1 .2-1.06 1.51 1.51 0 0 1 .6-.7 1.74 1.74 0 0 1 1-.25 2.48 2.48 0 0 1 .66.08 2.75 2.75 0 0 1 .45.17.22.22 0 0 1 .09.07.11.11 0 0 1 0 .11v.3c0 .12-.06.15-.19.11a3.1 3.1 0 0 0 -1-.19c-.69 0-1.05.46-1.05 1.4v.65a1.72 1.72 0 0 0 .27 1.06 1 1 0 0 0 .78.35 3.36 3.36 0 0 0 1-.19c.13-.06.19 0 .19.1v.31a.09.09 0 0 1 0 .1l-.09.08a4.19 4.19 0 0 1 -.46.16 2.84 2.84 0 0 1 -.66.04z"/><path d="m213.66 45.28a.14.14 0 0 1 -.06.12h-.52a.18.18 0 0 1 -.17-.17v-2.76a1.2 1.2 0 0 0 -.23-.86.92.92 0 0 0 -.67-.25 3.7 3.7 0 0 0 -.57.07 2 2 0 0 0 -.59.17v3.64a.18.18 0 0 1 -.17.17h-.41a.08.08 0 0 1 -.11-.11v-6a.24.24 0 0 1 0-.12h.66a.24.24 0 0 1 0 .12v1.74a3.4 3.4 0 0 1 .64-.2 3.47 3.47 0 0 1 .64-.06 1.57 1.57 0 0 1 .8.18 1.26 1.26 0 0 1 .54.58 2.27 2.27 0 0 1 .19 1z"/><path d="m219.29 43.45a2.23 2.23 0 0 1 -.49 1.55 2 2 0 0 1 -2.8 0 2.22 2.22 0 0 1 -.48-1.51v-.64a2.2 2.2 0 0 1 .48-1.5 1.78 1.78 0 0 1 1.39-.56 1.76 1.76 0 0 1 1.39.56 2.28 2.28 0 0 1 .49 1.5zm-.75 0v-.64a1.91 1.91 0 0 0 -.12-.75 1.13 1.13 0 0 0 -1.86-.28 1.62 1.62 0 0 0 -.28 1v.64c0 .94.37 1.41 1.13 1.41a1.08 1.08 0 0 0 .86-.36 1.75 1.75 0 0 0 .27-1.07zm1.21-2.55c.09 1-.25 1.47-1.05 1.57v-.58a.65.65 0 0 0 .48-.54v-.43c0-.06 0-.09.14-.1h.34a.09.09 0 0 1 .09.08z"/><path d="m224.72 42.47v2.77a.24.24 0 0 1 0 .12h-.65a.24.24 0 0 1 0-.12v-2.77a1.86 1.86 0 0 0 -.1-.66.63.63 0 0 0 -.32-.36 1.43 1.43 0 0 0 -.65 0 3.84 3.84 0 0 0 -1.06.16v3.74a.11.11 0 0 1 0 .11.13.13 0 0 1 -.12 0h-.41a.11.11 0 0 1 -.11 0 .16.16 0 0 1 -.05-.11v-4.1a.18.18 0 0 1 .16-.2 7.26 7.26 0 0 1 1.74-.27 2.72 2.72 0 0 1 .8.12 1 1 0 0 1 .5.35 1.34 1.34 0 0 1 .27.53 4.33 4.33 0 0 1 0 .69z"/></g></svg>