<svg viewBox="0 0 113.37 24.04" xmlns="http://www.w3.org/2000/svg"><g fill="#fff"><path d="m0 1h3.9c4.22 0 6.93 2.1 6.93 6.8s-2.71 6.9-6.75 6.9h-4.08zm3.71 11.21c2.34 0 3.92-1.13 3.92-4.41s-1.58-4.29-3.92-4.29h-.59v8.7z"/><path d="m11.5 9.5a5.13 5.13 0 1 1 10.24 0 5.13 5.13 0 1 1 -10.24 0m7.05 0c0-1.8-.64-3-1.93-3s-1.93 1.17-1.93 3 .64 3 1.93 3 1.93-1.17 1.93-3"/><path d="m22.41 9.5a5.27 5.27 0 0 1 5.47-5.5 4.61 4.61 0 0 1 3.12 1.16l-1.47 2a2.12 2.12 0 0 0 -1.42-.61c-1.5 0-2.46 1.17-2.46 3s1 3 2.35 3a3.19 3.19 0 0 0 1.9-.77l1.21 2a5.28 5.28 0 0 1 -3.51 1.22c-2.93 0-5.19-2-5.19-5.46"/><path d="m32.8 10.92v-4.21h-1.43v-2.3l1.63-.12.36-2.76h2.58v2.76h2.51v2.42h-2.53v4.17c0 1.18.54 1.65 1.36 1.65a3.48 3.48 0 0 0 1-.19l.49 2.24a7.71 7.71 0 0 1 -2.34.37c-2.6 0-3.63-1.62-3.63-4"/><path d="m39 9.5a5.13 5.13 0 1 1 10.23 0 5.13 5.13 0 1 1 -10.23 0m7 0c0-1.8-.64-3-1.93-3s-1.92 1.17-1.92 3 .64 3 1.92 3 1.93-1.2 1.93-3"/><path d="m50 4.29h2.5l.22 1.82h.08a3.54 3.54 0 0 1 3-2.07 3.05 3.05 0 0 1 1.2.21l-.52 2.66a4.47 4.47 0 0 0 -1.14-.17 2.61 2.61 0 0 0 -2.31 1.93v6h-3.03z"/><path d="m61.46 7.94c0-4.54 3-7.17 6.52-7.17a5.83 5.83 0 0 1 4.15 1.78l-1.65 2a3.48 3.48 0 0 0 -2.43-1.09c-1.9 0-3.39 1.66-3.39 4.4s1.34 4.42 3.34 4.42a3.68 3.68 0 0 0 2.7-1.28l1.64 2a5.71 5.71 0 0 1 -4.46 2c-3.5 0-6.42-2.4-6.42-7"/><path d="m73.44 0h3.11v3.59l-.14 1.89a4.77 4.77 0 0 1 3.25-1.48c2.28 0 3.25 1.6 3.25 4.2v6.5h-3.11v-6.07c0-1.49-.4-2-1.3-2a2.7 2.7 0 0 0 -2 1v7h-3.06z"/><path d="m83.73 9.5a5.13 5.13 0 0 1 5-5.46c3 0 4.47 2.15 4.47 5a6.88 6.88 0 0 1 -.2 1.36h-6.25a2.52 2.52 0 0 0 2.72 2.2 4.4 4.4 0 0 0 2.27-.68l1 1.86a6.87 6.87 0 0 1 -3.74 1.22 5.09 5.09 0 0 1 -5.27-5.5m6.77-1.14c0-1.15-.5-2-1.75-2a2.07 2.07 0 0 0 -2 2z"/><path d="m93.85 9.5a5.27 5.27 0 0 1 5.47-5.5 4.59 4.59 0 0 1 3.07 1.12l-1.47 2a2.12 2.12 0 0 0 -1.42-.61c-1.5.02-2.5 1.19-2.5 2.99s1 3 2.36 3a3.14 3.14 0 0 0 1.89-.77l1.22 2a5.31 5.31 0 0 1 -3.47 1.27c-2.93 0-5.19-2-5.19-5.46"/><path d="m103.26 0h3.05v8.42h.07l3.34-4.13h3.37l-3.67 4.29 3.95 6.12h-3.37l-2.36-4.06-1.33 1.5v2.56h-3.05z"/><path d="m3.56 18.42c0 .07 0 .11-.13.11h-1.24v4.13a.16.16 0 0 1 0 .09.12.12 0 0 1 -.09 0h-.38a.11.11 0 0 1 -.08 0 .16.16 0 0 1 0-.09v-4.13h-1.28c-.09 0-.13 0-.13-.11v-.28a.1.1 0 0 1 0-.08.12.12 0 0 1 .09 0h3.11a.12.12 0 0 1 .13.11z"/><path d="m7.38 22.54c0 .08 0 .13-.09.14a4.64 4.64 0 0 1 -.51.11 4.78 4.78 0 0 1 -.57 0 1.87 1.87 0 0 1 -1.08-.25 1 1 0 0 1 -.32-.81v-.06a1 1 0 0 1 .19-.54.87.87 0 0 1 .49-.34 2.75 2.75 0 0 1 .9-.11h.47v-.26a.77.77 0 0 0 -.15-.55.7.7 0 0 0 -.53-.16 3.37 3.37 0 0 0 -.5 0l-.48.12a.14.14 0 0 1 -.11 0 .08.08 0 0 1 0-.08v-.25a.14.14 0 0 1 .09-.12 3.65 3.65 0 0 1 .44-.13 2.35 2.35 0 0 1 .6-.07 1.08 1.08 0 0 1 1.24 1.2zm-.16-3.79s0 .05-.06.05h-.33-.07l-.08-.08-.52-.62-.54.62-.07.08h-.07-.34a0 0 0 0 1 0-.05.11.11 0 0 1 0-.06l.62-.8.07-.08h.62a.21.21 0 0 1 .16.09l.61.8a.07.07 0 0 1 0 .06m-.4 3.58v-1.25h-.47a3.1 3.1 0 0 0 -.49 0 .7.7 0 0 0 -.29.11.4.4 0 0 0 -.15.19.76.76 0 0 0 0 .29v.05a.94.94 0 0 0 .07.37.44.44 0 0 0 .26.19 1.39 1.39 0 0 0 .51.07h.24.22.15m.63-4.27s0 .05-.06.05h-.44v-.06l-.72-.81a.05.05 0 0 1 0-.05s0 0 .07 0h.42a.21.21 0 0 1 .16.09l.62.8a.06.06 0 0 1 0 .06"/><path d="m8.91 22.66v-3.09a.14.14 0 0 1 .09-.15 6.67 6.67 0 0 1 .72-.15 2.84 2.84 0 0 1 .56-.05 1.42 1.42 0 0 1 .42.06.82.82 0 0 1 .32.19 2.54 2.54 0 0 1 1.06-.26 1.33 1.33 0 0 1 .54.11.83.83 0 0 1 .36.38 1.52 1.52 0 0 1 .13.69v2.27a.11.11 0 0 1 -.12.12h-.31a.16.16 0 0 1 -.09 0 .12.12 0 0 1 0-.09v-2.3a.75.75 0 0 0 -.15-.53.59.59 0 0 0 -.43-.15 2 2 0 0 0 -.75.17 1.9 1.9 0 0 1 .06.5v2.28a.11.11 0 0 1 0 .08.11.11 0 0 1 -.09 0h-.34a.11.11 0 0 1 -.08 0 .16.16 0 0 1 0-.09v-2.27a1.2 1.2 0 0 0 -.05-.42.33.33 0 0 0 -.16-.2.56.56 0 0 0 -.28-.05 3.09 3.09 0 0 0 -.78.1v2.85a.16.16 0 0 1 0 .09.11.11 0 0 1 -.08 0h-.46a.11.11 0 0 1 -.08 0 .16.16 0 0 1 0-.09"/><path d="m18.05 22.35c.47 0 .7-.16.7-.49a.33.33 0 0 0 -.1-.25 1.17 1.17 0 0 0 -.38-.25l-.64-.36a1.32 1.32 0 0 1 -.49-.39.89.89 0 0 1 -.17-.54.77.77 0 0 1 .17-.52.94.94 0 0 1 .45-.27 1.9 1.9 0 0 1 .6-.08 3 3 0 0 1 .52.05 1.37 1.37 0 0 1 .38.13h.07a.14.14 0 0 1 0 .07v.26a.1.1 0 0 1 0 .09.11.11 0 0 1 -.11 0 3.37 3.37 0 0 0 -.41-.12 2.29 2.29 0 0 0 -.43 0 1.28 1.28 0 0 0 -.48.07.31.31 0 0 0 -.18.31.41.41 0 0 0 .11.28 1.41 1.41 0 0 0 .33.24l.64.32a1.9 1.9 0 0 1 .42.28.83.83 0 0 1 .22.29 1 1 0 0 1 .06.35.9.9 0 0 1 -.16.55 1 1 0 0 1 -.45.33 1.84 1.84 0 0 1 -.65.11 2 2 0 0 1 -.54-.07 1.86 1.86 0 0 1 -.42-.14c-.06 0-.09-.07-.09-.11v-.26a.13.13 0 0 1 0-.09.11.11 0 0 1 .11 0 2.39 2.39 0 0 0 .9.19"/><path d="m23.49 21.27a1.65 1.65 0 0 1 -.37 1.14 1.31 1.31 0 0 1 -1.05.42 1.34 1.34 0 0 1 -1.07-.42 1.7 1.7 0 0 1 -.37-1.14v-.49a1.7 1.7 0 0 1 .37-1.14 1.34 1.34 0 0 1 1.06-.42 1.31 1.31 0 0 1 1.05.42 1.65 1.65 0 0 1 .37 1.14zm-.56 0v-.49a1.62 1.62 0 0 0 -.09-.57.78.78 0 0 0 -.29-.37.82.82 0 0 0 -.48-.13.76.76 0 0 0 -.65.28 1.3 1.3 0 0 0 -.21.79v.49c0 .71.28 1.07.86 1.07a.78.78 0 0 0 .64-.28 1.24 1.24 0 0 0 .22-.79"/><path d="m27.39 22.54c0 .08 0 .13-.09.14a4.64 4.64 0 0 1 -.51.11 4.78 4.78 0 0 1 -.57 0 1.87 1.87 0 0 1 -1.08-.25 1 1 0 0 1 -.32-.81v-.06a1 1 0 0 1 .15-.58.82.82 0 0 1 .49-.34 2.75 2.75 0 0 1 .9-.11h.47v-.26a.79.79 0 0 0 -.15-.55.7.7 0 0 0 -.53-.16 3.37 3.37 0 0 0 -.5 0l-.48.12a.14.14 0 0 1 -.11 0 .08.08 0 0 1 0-.08v-.25a.14.14 0 0 1 .09-.12 3.65 3.65 0 0 1 .44-.13 2.35 2.35 0 0 1 .6-.07 1.08 1.08 0 0 1 1.24 1.2zm-.56-.21v-1.24h-.47a3.1 3.1 0 0 0 -.49 0 .7.7 0 0 0 -.29.11.4.4 0 0 0 -.15.19.76.76 0 0 0 -.05.29v.05a1 1 0 0 0 .07.37.44.44 0 0 0 .26.19 1.39 1.39 0 0 0 .51.07h.24.22.15m.31-4.49s0 0 0 .05l-.73.81-.07.08h-.07-.37s-.06 0-.06-.05a.07.07 0 0 1 0-.06l.63-.8.07-.07s0 0 .08 0h.42.07"/><path d="m30.84 22.69c0 .06 0 .1-.12.11h-.41a1 1 0 0 1 -.67-.18.86.86 0 0 1 -.2-.68v-2.2l-.62-.07c-.09 0-.13-.05-.13-.12v-.17c0-.08 0-.11.13-.11h.62v-.63a.12.12 0 0 1 .11-.13l.33-.05a.08.08 0 0 1 .07 0 .1.1 0 0 1 0 .08v.7h.69a.12.12 0 0 1 .13.12v.22a.12.12 0 0 1 0 .09.18.18 0 0 1 -.09 0h-.68v2.33a.5.5 0 0 0 .07.33.38.38 0 0 0 .27.07h.36c.09 0 .14 0 .14.09z"/><path d="m37.24 21.25a1.78 1.78 0 0 1 -.34 1.16 1.28 1.28 0 0 1 -1 .42 6.47 6.47 0 0 1 -1.18-.11.19.19 0 0 1 -.11 0 .22.22 0 0 1 0-.1v-4.53a.11.11 0 0 1 0-.08.09.09 0 0 1 .08 0h.31a.14.14 0 0 1 .12.12v1.19l.36-.05h.39a1.63 1.63 0 0 1 .61.1 1.15 1.15 0 0 1 .44.3 1.53 1.53 0 0 1 .26.49 2.76 2.76 0 0 1 .08.68zm-.56 0v-.46a1.34 1.34 0 0 0 -.19-.81.73.73 0 0 0 -.64-.27 4.36 4.36 0 0 0 -.75.05v2.54h.75a.72.72 0 0 0 .64-.27 1.42 1.42 0 0 0 .19-.82"/><path d="m40 22.34a2.71 2.71 0 0 0 .41 0l.4-.11.32-.12a.11.11 0 0 1 .11 0 .13.13 0 0 1 0 .09v.26s0 .08-.09.11a2.47 2.47 0 0 1 -1.19.3 1.9 1.9 0 0 1 -.73-.14 1.19 1.19 0 0 1 -.53-.49 1.83 1.83 0 0 1 -.2-.91v-.57a1.55 1.55 0 0 1 .38-1.1 1.36 1.36 0 0 1 1-.4 1.54 1.54 0 0 1 .77.18 1.13 1.13 0 0 1 .47.52 1.84 1.84 0 0 1 .16.8v.34c0 .1 0 .14-.12.14h-2.02v.09a1.22 1.22 0 0 0 .21.8.85.85 0 0 0 .68.25m1-3.49s0 0-.05 0h-.34s-.05 0-.06 0l-.08-.08-.5-.64-.53.62-.08.08h-.06-.33s-.06 0-.06 0a.09.09 0 0 1 0-.07l.61-.79.08-.08h.08.54a.19.19 0 0 1 .16.1l.61.79a.08.08 0 0 1 0 .07m-.23 1.92v-.05a1.57 1.57 0 0 0 -.09-.58.61.61 0 0 0 -.28-.33 1 1 0 0 0 -.46-.1c-.58 0-.86.34-.86 1v.05zm-.71 2.93a.13.13 0 0 1 0 .09.16.16 0 0 1 -.09 0h-.25a.16.16 0 0 1 -.09 0 .1.1 0 0 1 0-.09v-.52a.09.09 0 0 1 0-.08.14.14 0 0 1 .09-.05h.26a.14.14 0 0 1 .09.05.12.12 0 0 1 0 .08z"/><path d="m45.54 20.56v2.1a.18.18 0 0 1 0 .09.16.16 0 0 1 -.09 0h-.35a.11.11 0 0 1 -.12-.12v-2.1a1.36 1.36 0 0 0 -.08-.51.46.46 0 0 0 -.24-.27 1 1 0 0 0 -.43-.08 3.43 3.43 0 0 0 -.82.11v2.85a.12.12 0 0 1 0 .08.12.12 0 0 1 -.09 0h-.32a.14.14 0 0 1 -.09 0 .18.18 0 0 1 0-.09v-3.05a.14.14 0 0 1 .12-.15 5.16 5.16 0 0 1 1.32-.2 1.82 1.82 0 0 1 .61.09.9.9 0 0 1 .39.26 1 1 0 0 1 .2.41 2.4 2.4 0 0 1 .06.58"/><path d="m49.75 22.66a.12.12 0 0 1 0 .09.14.14 0 0 1 -.09 0h-.3a.12.12 0 0 1 -.13-.12v-2.08a.92.92 0 0 0 -.23-.65.63.63 0 0 0 -.51-.19 2.7 2.7 0 0 0 -.43.05 1.84 1.84 0 0 0 -.45.13v2.77a.09.09 0 0 1 0 .08.1.1 0 0 1 -.09 0h-.31a.11.11 0 0 1 -.08 0 .12.12 0 0 1 0-.09v-4.55a.12.12 0 0 1 .12-.13h.32a.1.1 0 0 1 .09 0 .12.12 0 0 1 0 .09v1.32a1.87 1.87 0 0 1 .49-.15 2.15 2.15 0 0 1 .49-.05 1.22 1.22 0 0 1 .61.14 1 1 0 0 1 .4.44 1.82 1.82 0 0 1 .14.75z"/><path d="m56.28 22.57a.16.16 0 0 1 0 .1s0 0-.11 0a4.17 4.17 0 0 1 -.59.08 5.83 5.83 0 0 1 -.59 0 1.71 1.71 0 0 1 -.62-.11 1.16 1.16 0 0 1 -.43-.32 1.32 1.32 0 0 1 -.26-.5 2.57 2.57 0 0 1 -.08-.65v-.46a2.62 2.62 0 0 1 .08-.67 1.48 1.48 0 0 1 .26-.5 1.15 1.15 0 0 1 .44-.3 1.66 1.66 0 0 1 .61-.1h.36.2.19v-.47h-1a.12.12 0 0 1 -.13-.12v-.22a.12.12 0 0 1 0-.09.13.13 0 0 1 .09 0h1v-.25a.14.14 0 0 1 .12-.12h.33a.09.09 0 0 1 .08 0 .11.11 0 0 1 0 .08v.25h.23a.18.18 0 0 1 .09 0 .12.12 0 0 1 0 .09v.22a.12.12 0 0 1 0 .09.16.16 0 0 1 -.09 0h-.23zm-.56-2.81h-.18-.54a1.09 1.09 0 0 0 -.39.07.67.67 0 0 0 -.26.21 1.05 1.05 0 0 0 -.14.34 3 3 0 0 0 0 .46v.46a2.13 2.13 0 0 0 0 .46.81.81 0 0 0 .14.34.49.49 0 0 0 .26.21.87.87 0 0 0 .39.08h.75z"/><path d="m59.25 22.34a2.71 2.71 0 0 0 .41 0l.4-.11.32-.12a.11.11 0 0 1 .11 0 .12.12 0 0 1 0 .09v.26a.12.12 0 0 1 -.08.11 2.47 2.47 0 0 1 -1.19.3 1.9 1.9 0 0 1 -.73-.14 1.19 1.19 0 0 1 -.49-.53 1.83 1.83 0 0 1 -.2-.91v-.58a1.54 1.54 0 0 1 .38-1.09 1.36 1.36 0 0 1 1-.4 1.57 1.57 0 0 1 .77.18 1.13 1.13 0 0 1 .47.52 1.8 1.8 0 0 1 .16.79v.35c0 .1 0 .14-.12.14h-2.1v.09a1.22 1.22 0 0 0 .21.8.85.85 0 0 0 .68.25m1-3.49s0 0-.06 0h-.33-.07l-.07-.08-.53-.62-.53.62a.29.29 0 0 1 -.08.08h-.07-.33s-.06 0-.06 0a.09.09 0 0 1 0-.07l.61-.79.08-.08a.15.15 0 0 1 .08 0h.54a.21.21 0 0 1 .16.1l.61.79a.08.08 0 0 1 0 .07m-.23 1.92v-.06a1.55 1.55 0 0 0 -.09-.57.61.61 0 0 0 -.28-.33 1 1 0 0 0 -.46-.1c-.58 0-.86.34-.86 1v.06zm.11-3.92h-.23l-.24.07c-.12 0-.18 0-.18-.1v-.12a.08.08 0 0 1 0-.07h.06a.9.9 0 0 1 .23-.07 1 1 0 0 1 .3 0 .75.75 0 0 1 .45.12.38.38 0 0 1 .18.35.32.32 0 0 1 0 .14.51.51 0 0 1 -.07.15 2 2 0 0 1 -.16.2l-.12.14-.09.1a.11.11 0 0 0 0 .06.15.15 0 0 0 0 .08v.08a.1.1 0 0 1 0 .08.18.18 0 0 1 -.1 0h-.11a.15.15 0 0 1 -.1 0 .12.12 0 0 1 0-.08v-.13a.86.86 0 0 1 0-.17l.06-.13.12-.14.12-.14a.92.92 0 0 0 .12-.16.28.28 0 0 0 0-.13.13.13 0 0 0 -.15-.12"/><path d="m67.16 22.66a.18.18 0 0 1 0 .09.16.16 0 0 1 -.09 0h-.31a.16.16 0 0 1 -.09 0 .18.18 0 0 1 0-.09v-2.11a.92.92 0 0 0 -.17-.65.66.66 0 0 0 -.51-.19 2.69 2.69 0 0 0 -.44.05 1.64 1.64 0 0 0 -.44.13v2.77a.12.12 0 0 1 0 .08.12.12 0 0 1 -.09 0h-.32a.13.13 0 0 1 -.08 0 .12.12 0 0 1 0-.09v-4.55a.1.1 0 0 1 0-.09.09.09 0 0 1 .08 0h.32a.1.1 0 0 1 -.02-.01.13.13 0 0 1 0 .09v1.32a1.8 1.8 0 0 1 .48-.15 2.2 2.2 0 0 1 .49-.05 1.2 1.2 0 0 1 .61.14.91.91 0 0 1 .4.44 1.67 1.67 0 0 1 .15.75z"/><path d="m71.15 22.54c0 .08 0 .13-.09.14a4.64 4.64 0 0 1 -.51.11 3.32 3.32 0 0 1 -.57 0 1.87 1.87 0 0 1 -1.08-.25 1 1 0 0 1 -.32-.81v-.05a1.05 1.05 0 0 1 .15-.59.87.87 0 0 1 .49-.34 2.75 2.75 0 0 1 .9-.11h.47v-.26a.77.77 0 0 0 -.15-.55.7.7 0 0 0 -.53-.16 2.41 2.41 0 0 0 -.5 0l-.48.12a.14.14 0 0 1 -.11 0 .09.09 0 0 1 0-.08v-.25a.14.14 0 0 1 .09-.12 3.65 3.65 0 0 1 .44-.13 2.35 2.35 0 0 1 .6-.07 1.08 1.08 0 0 1 1.24 1.2zm-.56-.21v-1.24h-.47a3.1 3.1 0 0 0 -.49 0 .7.7 0 0 0 -.29.11.4.4 0 0 0 -.15.19.76.76 0 0 0 0 .29v.05a.9.9 0 0 0 .07.37.44.44 0 0 0 .26.19 1.39 1.39 0 0 0 .51.07h.24.22.15m-.47 1.37a.1.1 0 0 1 0 .09.12.12 0 0 1 -.09 0h-.25a.11.11 0 0 1 -.08 0 .1.1 0 0 1 0-.09v-.52a.09.09 0 0 1 0-.08.1.1 0 0 1 .08-.05h.17a.11.11 0 0 1 .09.05.09.09 0 0 1 0 .08z"/><path d="m75.37 20.56v2.1a.12.12 0 0 1 0 .09.16.16 0 0 1 -.09 0h-.3a.12.12 0 0 1 -.13-.12v-2.1a1.36 1.36 0 0 0 -.08-.51.46.46 0 0 0 -.24-.27 1 1 0 0 0 -.42-.08 3.51 3.51 0 0 0 -.83.11v2.85a.09.09 0 0 1 0 .08.1.1 0 0 1 -.09 0h-.39a.11.11 0 0 1 -.08 0 .12.12 0 0 1 0-.09v-3.05a.14.14 0 0 1 .11-.15 5.17 5.17 0 0 1 1.33-.2 1.72 1.72 0 0 1 .6.09.79.79 0 0 1 .39.26 1 1 0 0 1 .2.41 2.4 2.4 0 0 1 .06.58"/><path d="m79.59 22.66a.18.18 0 0 1 0 .09.16.16 0 0 1 -.09 0h-.31a.11.11 0 0 1 -.12-.12v-2.08a.92.92 0 0 0 -.18-.65.66.66 0 0 0 -.51-.19 2.81 2.81 0 0 0 -.44.05 1.64 1.64 0 0 0 -.44.13v2.77a.12.12 0 0 1 0 .08.12.12 0 0 1 -.09 0h-.41a.14.14 0 0 1 -.09 0 .18.18 0 0 1 0-.09v-4.55a.13.13 0 0 1 0-.09.1.1 0 0 1 .09-.01h.32a.09.09 0 0 1 .08 0 .1.1 0 0 1 0 .09v1.32a1.8 1.8 0 0 1 .48-.15 2.2 2.2 0 0 1 .49-.05 1.17 1.17 0 0 1 .61.14.91.91 0 0 1 .4.44 1.67 1.67 0 0 1 .15.75z"/><path d="m86.22 21.26a1.66 1.66 0 0 1 -.36 1.16 1.3 1.3 0 0 1 -1 .41 5.11 5.11 0 0 1 -.75-.07v1.15a.12.12 0 0 1 -.11.09.18.18 0 0 1 0 0h-.32a.13.13 0 0 1 -.09 0 .12.12 0 0 1 0-.09v-4.4a.17.17 0 0 1 0-.1.19.19 0 0 1 .1 0 3 3 0 0 1 .37-.08l.41-.05a2.75 2.75 0 0 1 .4 0 1.46 1.46 0 0 1 .78.19 1.13 1.13 0 0 1 .46.55 2 2 0 0 1 .16.84zm-.57 0v-.46a1.72 1.72 0 0 0 -.08-.59.66.66 0 0 0 -.26-.38.81.81 0 0 0 -.49-.14 3.67 3.67 0 0 0 -.75.07v2.53a4.35 4.35 0 0 0 .75.07.74.74 0 0 0 .64-.28 1.42 1.42 0 0 0 .19-.82"/><path d="m90.34 22.66a.18.18 0 0 1 0 .09.16.16 0 0 1 -.09 0h-.35a.11.11 0 0 1 -.12-.12v-2.08a.92.92 0 0 0 -.18-.65.66.66 0 0 0 -.51-.19 2.81 2.81 0 0 0 -.44.05 1.64 1.64 0 0 0 -.44.13v2.77a.12.12 0 0 1 0 .08.12.12 0 0 1 -.09 0h-.31a.16.16 0 0 1 -.09 0 .18.18 0 0 1 0-.09v-4.55a.13.13 0 0 1 0-.09.1.1 0 0 1 .09 0h.32a.09.09 0 0 1 .08 0 .1.1 0 0 1 0 .09v1.32a1.92 1.92 0 0 1 .48-.15 2.23 2.23 0 0 1 .5-.05 1.16 1.16 0 0 1 .6.14.91.91 0 0 1 .4.44 1.67 1.67 0 0 1 .15.75z"/><path d="m91.86 21.49v-2.1a.12.12 0 0 1 0-.09.13.13 0 0 1 .09 0h.3a.13.13 0 0 1 .09 0 .12.12 0 0 1 0 .09v2.1a1 1 0 0 0 .18.67.74.74 0 0 0 .56.19 2.31 2.31 0 0 0 .4 0 3.34 3.34 0 0 0 .43-.08v-2.88a.12.12 0 0 1 0-.09.13.13 0 0 1 .09 0h.31a.13.13 0 0 1 .09 0 .16.16 0 0 1 0 .09v3.09a.13.13 0 0 1 -.11.15 5.65 5.65 0 0 1 -1.33.2 1.61 1.61 0 0 1 -.75-.16.86.86 0 0 1 -.39-.45 2.16 2.16 0 0 1 -.11-.73m2.34-3.65a.08.08 0 0 1 0 .05l-.73.81-.08.08h-.07-.17s-.06 0-.06-.05a.07.07 0 0 1 0-.06l.62-.8.08-.07s0 0 .08 0h.42.07"/><path d="m97.34 22.83a1.5 1.5 0 0 1 -.58-.11 1.17 1.17 0 0 1 -.44-.31 1.53 1.53 0 0 1 -.26-.49 2.46 2.46 0 0 1 -.08-.65v-.5a2.09 2.09 0 0 1 .15-.83 1.09 1.09 0 0 1 .46-.53 1.37 1.37 0 0 1 .75-.19 1.88 1.88 0 0 1 .49.06 2.46 2.46 0 0 1 .35.13.14.14 0 0 1 .07.06.13.13 0 0 1 0 .08v.22q0 .14-.15.09a2.24 2.24 0 0 0 -.78-.15c-.53 0-.8.36-.8 1.06v.5a1.27 1.27 0 0 0 .21.8.68.68 0 0 0 .59.27 2.24 2.24 0 0 0 .78-.15c.1 0 .15 0 .15.08v.23a.13.13 0 0 1 0 .08.22.22 0 0 1 -.07.06 2 2 0 0 1 -.35.12 1.53 1.53 0 0 1 -.49.07"/><path d="m104.77 22.66a.18.18 0 0 1 0 .09.16.16 0 0 1 -.09 0h-.31a.16.16 0 0 1 -.09 0 .18.18 0 0 1 0-.09v-2.11a.92.92 0 0 0 -.17-.65.66.66 0 0 0 -.51-.19 2.69 2.69 0 0 0 -.44.05 1.64 1.64 0 0 0 -.44.13v2.77a.12.12 0 0 1 0 .08.12.12 0 0 1 -.09 0h-.32a.13.13 0 0 1 -.08 0 .12.12 0 0 1 0-.09v-4.55a.1.1 0 0 1 0-.09.09.09 0 0 1 .08 0h.32a.1.1 0 0 1 .09 0 .13.13 0 0 1 0 .09v1.32a1.8 1.8 0 0 1 .48-.15 2.2 2.2 0 0 1 .49-.05 1.2 1.2 0 0 1 .61.14.91.91 0 0 1 .4.44 1.67 1.67 0 0 1 .15.75z"/><path d="m109 21.27a1.65 1.65 0 0 1 -.37 1.14 1.33 1.33 0 0 1 -1.06.42 1.31 1.31 0 0 1 -1-.42 1.65 1.65 0 0 1 -.37-1.14v-.49a1.65 1.65 0 0 1 .37-1.14 1.31 1.31 0 0 1 1-.42 1.33 1.33 0 0 1 1.06.42 1.65 1.65 0 0 1 .37 1.14zm-.56 0v-.49a1.42 1.42 0 0 0 -.1-.57.75.75 0 0 0 -.28-.37.83.83 0 0 0 -.49-.13.76.76 0 0 0 -.57.29 1.3 1.3 0 0 0 -.22.79v.49c0 .71.29 1.07.86 1.07a.78.78 0 0 0 .65-.28 1.24 1.24 0 0 0 .22-.79m.91-1.94c.07.72-.19 1.11-.77 1.19v-.44c.23-.1.35-.23.36-.41v-.33s0-.07.11-.07h.26a.08.08 0 0 1 .08.06"/><path d="m113.16 20.56v2.1a.12.12 0 0 1 0 .09.16.16 0 0 1 -.09 0h-.3a.17.17 0 0 1 -.1 0 .16.16 0 0 1 0-.09v-2.1a1.36 1.36 0 0 0 -.08-.51.46.46 0 0 0 -.24-.27 1 1 0 0 0 -.43-.08 3.5 3.5 0 0 0 -.82.11v2.85a.09.09 0 0 1 0 .08.12.12 0 0 1 -.09 0h-.31a.11.11 0 0 1 -.12-.12v-3.05a.13.13 0 0 1 .11-.15 5.16 5.16 0 0 1 1.32-.2 1.78 1.78 0 0 1 .61.09.79.79 0 0 1 .39.26 1 1 0 0 1 .2.41 2.4 2.4 0 0 1 .06.58"/></g></svg>